<svg width="12" height="9" viewBox="0 0 12 9" fill="none" xmlns="http://www.w3.org/2000/svg">
<path d="M4.27318 0.0132666C4.18626 0.0306492 4.06314 0.0813479 3.99796 0.126253C3.96609 0.147981 3.79806 0.318908 3.62423 0.505769C3.45186 0.69263 3.27803 0.866454 3.24037 0.893976C3.20271 0.921498 3.12014 0.9693 3.05641 0.999719C2.94922 1.05042 2.87244 1.06925 1.98449 1.24307C1.45867 1.34737 0.980658 1.44876 0.924165 1.4676C0.499744 1.61245 0.179618 1.94851 0.040559 2.39611L0 2.52647V4.721V6.91553L0.040559 7.043C0.194104 7.53261 0.5432 7.87157 1.0357 8.00773L1.17331 8.04539L4.94674 8.04974C7.67723 8.05263 8.76074 8.04974 8.86503 8.03815C9.41837 7.97441 9.87031 7.60359 10.0369 7.07198C10.0876 6.90974 10.1035 6.75909 10.1035 6.45055V6.18837L9.93695 6.22893C9.64579 6.29991 9.47197 6.32019 9.1475 6.32019C8.58546 6.32019 8.12483 6.21155 7.64102 5.9653C7.54107 5.9146 7.45706 5.87114 7.45271 5.86824C7.44836 5.86679 7.41939 5.90735 7.39042 5.95805C7.25861 6.18258 7.00222 6.47808 6.78783 6.65045C6.31126 7.03431 5.69274 7.25594 5.09594 7.25594C4.92357 7.25594 4.63676 7.22117 4.46149 7.17772C3.45186 6.93002 2.67689 6.12753 2.46106 5.10631C2.41036 4.86731 2.39732 4.44578 2.43209 4.19953C2.52335 3.57376 2.80726 3.03056 3.26934 2.60035C3.659 2.23677 4.13267 2.005 4.68601 1.90795C4.83231 1.88333 5.35378 1.88333 5.49719 1.90795C5.60438 1.92823 5.86367 1.98907 5.90712 2.00645C5.92306 2.01224 5.93175 2.00066 5.93899 1.96589C5.95493 1.89491 6.07226 1.60231 6.13889 1.46904C6.26926 1.20831 6.47205 0.912807 6.64732 0.725946C6.69947 0.670902 6.74293 0.618754 6.74293 0.611512C6.74293 0.604269 6.63718 0.49418 6.50827 0.365261C6.32285 0.182745 6.25187 0.121907 6.17945 0.0856938C6.01142 0.00167847 5.9752 -0.0012188 5.11333 0.000229836C4.68311 0.00167847 4.30504 0.00747299 4.27318 0.0132666Z" fill="#BDA57E"/>
<path d="M8.89485 0.275276C8.57762 0.305696 8.23576 0.402748 7.93881 0.549049C6.99437 1.01258 6.39757 2.01931 6.44393 3.0695C6.47579 3.77494 6.74377 4.38911 7.23627 4.88017C7.70125 5.34515 8.30384 5.61747 8.96438 5.66238C9.76686 5.71597 10.5462 5.41323 11.0966 4.83382C11.5877 4.31814 11.8426 3.68078 11.8426 2.9681C11.8426 2.53644 11.76 2.17141 11.5746 1.78755C11.0894 0.779366 10.0117 0.170982 8.89485 0.275276ZM9.52206 2.10912L9.52496 2.59148L10.0073 2.59438L10.4882 2.59873V2.9681V3.33748L10.0073 3.34182L9.52496 3.34472L9.52206 3.82708L9.51772 4.308L9.14544 4.31234L8.77172 4.31524V3.82998V3.34472H8.28646H7.8012V2.9681V2.59148H8.28646H8.77172V2.10622V1.62097L9.14544 1.62386L9.51772 1.62821L9.52206 2.10912Z" fill="#BDA57E"/>
<path d="M4.92529 2.8178C4.15901 2.90181 3.53759 3.4595 3.37391 4.21418C3.35363 4.30689 3.34639 4.3967 3.34783 4.57632C3.34783 4.78635 3.35218 4.83416 3.3855 4.96742C3.51731 5.49324 3.84323 5.90173 4.3198 6.14073C4.74133 6.35077 5.27728 6.3754 5.72053 6.20447C6.11309 6.05237 6.44046 5.76267 6.63746 5.39474L6.70264 5.27016L6.64615 5.20933C6.61573 5.17601 6.54765 5.09344 6.4955 5.02536C6.0479 4.45029 5.81469 3.797 5.78282 3.03508L5.77992 2.94961L5.67853 2.9134C5.4598 2.83808 5.12953 2.79607 4.92529 2.8178Z" fill="#BDA57E"/>
</svg>
