<svg width="100%" height="100%" viewBox="24 2 15 15" fill="none" xmlns="http://www.w3.org/2000/svg">
  <path d="M33.6245 6.95493C33.6245 6.95493 34.1838 6.73063 34.1372 7.27535C34.1216 7.49965 33.9818 8.2847 33.8731 9.13384L33.5003 11.6492C33.5003 11.6492 33.4692 12.0177 33.1896 12.0818C32.9099 12.1458 32.4905 11.8575 32.4128 11.7934C32.3507 11.7453 31.2477 11.0244 30.8594 10.6719C30.7506 10.5758 30.6263 10.3835 30.8749 10.1592L32.506 8.55707C32.6925 8.36481 32.8789 7.91621 32.1021 8.46094L29.9273 9.98297C29.9273 9.98297 29.6787 10.1432 29.2127 9.99899L28.2029 9.67856C28.2029 9.67856 27.8301 9.43825 28.467 9.19791C30.0205 8.44491 31.9313 7.67588 33.6245 6.95493Z" fill="#BDA57E"/>
</svg>
