<svg width="100%" height="100%" viewBox="0 0 19 19" fill="none" xmlns="http://www.w3.org/2000/svg">
<path d="M10.4906 9.41793C10.3563 9.36689 10.3563 9.17194 10.348 9.03619C10.3144 8.55262 10.4822 7.81437 10.2809 7.5005C10.1383 7.3137 9.45025 7.33081 9.03091 7.35633C8.91333 7.37344 8.77077 7.39869 8.6701 7.44973C8.56942 7.50078 8.46875 7.58549 8.46875 7.66178C8.46875 7.77202 8.72057 7.75518 8.81265 7.89936C8.91333 8.05222 8.91333 8.38292 8.91333 8.65444C8.91333 8.96831 8.86286 9.38427 8.73721 9.4011C8.54419 9.40952 8.43519 9.2143 8.33452 9.07013C8.13317 8.79019 7.93182 8.44211 7.78068 8.10272C7.70524 7.92461 7.66309 7.72939 7.55409 7.6531C7.3863 7.53417 7.08428 7.52576 6.79058 7.53417C6.52212 7.54259 6.13606 7.50865 6.06063 7.66993C6.00183 7.84804 6.12774 8.01774 6.19486 8.16218C6.53876 8.91726 6.9079 9.57921 7.36107 10.207C7.78068 10.7923 8.17478 11.2591 8.94662 11.5051C9.16488 11.5729 10.1211 11.7682 10.3142 11.5051C10.3813 11.4032 10.3646 11.1741 10.3982 11.0044C10.4318 10.8347 10.4736 10.665 10.6331 10.6566C10.7673 10.6482 10.8428 10.7668 10.9268 10.8518C11.0192 10.9452 11.0946 11.0215 11.1617 11.1065C11.3212 11.2678 11.489 11.4882 11.6903 11.5732C11.9671 11.6921 12.395 11.6582 12.7977 11.6411C13.125 11.6327 13.3599 11.5648 13.3851 11.3696C13.402 11.2167 13.234 10.9962 13.1333 10.8689C12.8815 10.555 12.7642 10.4616 12.4788 10.173C12.3529 10.0457 12.1934 9.90992 12.1934 9.75733C12.1851 9.66393 12.2605 9.57921 12.3277 9.48581C12.6214 9.0446 12.9151 8.73073 13.1835 8.27242C13.259 8.13666 13.4353 7.82279 13.3682 7.66993C13.2928 7.50023 12.8732 7.55101 12.613 7.55101C12.2775 7.55101 11.8412 7.52548 11.7572 7.59336C11.5977 7.7036 11.5306 7.88198 11.4551 8.05168C11.2874 8.44211 11.0608 8.8407 10.8259 9.13773C10.7418 9.23955 10.5826 9.4516 10.4903 9.41766L10.4906 9.41793Z" fill="#BDA57E"/>
</svg>