<svg width="90" height="90" viewBox="0 0 90 90" fill="none" xmlns="http://www.w3.org/2000/svg">
<rect width="90" height="90" rx="15" fill="#0C0F17"/>
<path d="M20.0319 42.6848L19.3946 43.2762C18.9358 42.4059 18.0862 41.9484 17.0411 41.9484C15.4352 41.9484 14.2966 43.0084 14.2966 45.0056C14.2966 46.9916 15.4352 48.0628 17.0411 48.0628C18.1116 48.0628 18.9783 47.583 19.4371 46.6904L20.0659 47.2706C19.4796 48.3863 18.4005 49 17.0411 49C14.9339 49 13.5234 47.5495 13.5234 45.0056C13.5234 42.4616 14.9339 41.0112 17.0411 41.0112C18.3835 41.0112 19.4456 41.5914 20.0319 42.6848Z" fill="white"/>
<path d="M26.4357 48.8996V44.8605H22.0939V48.8996H21.3292V41.0893H22.0939V43.9233H26.4357V41.0893H27.1919V48.8996H26.4357Z" fill="white"/>
<path d="M29.1454 48.8996V41.0893H29.9101V48.8996H29.1454Z" fill="white"/>
<path d="M37.6873 42.6402L37.0415 43.2315C36.5572 42.4059 35.5206 41.9372 34.45 41.9372C33.3285 41.9372 32.4278 42.4282 32.4278 43.2427C32.4278 44.046 33.252 44.2357 34.8324 44.4031C36.4977 44.5816 37.7552 45.0948 37.7552 46.6011C37.7552 48.3305 36.3618 49 34.7389 49C33.269 49 31.8246 48.2636 31.2298 47.159L31.867 46.5676C32.3598 47.4937 33.6259 48.0739 34.7899 48.0739C35.9964 48.0739 36.9735 47.7057 36.9735 46.6234C36.9735 45.742 36.0049 45.4854 34.637 45.3291C32.7932 45.1395 31.6206 44.6709 31.6206 43.2873C31.6206 41.8815 32.8527 41 34.45 41C35.818 41 37.084 41.6025 37.6873 42.6402Z" fill="white"/>
<path d="M44.7658 42.0265H41.9449V48.8996H41.1887V42.0265H38.3678V41.0893H44.7658V42.0265Z" fill="white"/>
<path d="M45.1288 45.0056C45.1288 42.4616 46.5392 41.0112 48.6464 41.0112C50.7536 41.0112 52.164 42.4616 52.164 45.0056C52.164 47.5495 50.7536 49 48.6464 49C46.5392 49 45.1288 47.5495 45.1288 45.0056ZM48.6464 41.9484C47.0405 41.9484 45.902 43.0195 45.902 45.0056C45.902 47.0028 47.0405 48.0628 48.6464 48.0628C50.2523 48.0628 51.3908 47.0028 51.3908 45.0056C51.3908 43.0195 50.2523 41.9484 48.6464 41.9484Z" fill="white"/>
<path d="M53.031 48.8996V47.8173H53.8467V48.8996H53.031Z" fill="white"/>
<path d="M61.6117 45.0167C61.6117 47.5272 60.2013 48.8996 58.1196 48.8996H55.3242V41.0893H58.1196C60.2013 41.0893 61.6117 42.5174 61.6117 45.0167ZM60.8385 45.0167C60.8385 43.0865 59.7085 42.0265 58.1196 42.0265H56.0889V47.9623H58.1961C59.7425 47.94 60.8385 46.9247 60.8385 45.0167Z" fill="white"/>
<path d="M68.0982 48.8996L65.6597 45.0948H63.7309V48.8996H62.9662V41.0893H66.7557C67.7923 41.0893 68.5061 41.848 68.5061 43.0976C68.5061 44.4031 67.6819 44.9498 66.7557 45.0167L66.6113 45.0279L69.0668 48.8996H68.0982ZM67.7413 43.0976C67.7413 42.2608 67.1721 42.0265 66.5263 42.0265H63.7309V44.1576H66.5263C67.1721 44.1576 67.7413 43.9233 67.7413 43.0976Z" fill="white"/>
<path d="M70.2846 48.8996V41.0893H71.0493V48.8996H70.2846Z" fill="white"/>
<path d="M75.2409 48.8996L72.216 41.0893H73.0487L75.7167 47.9735L78.3846 41.0893H79.2003L76.184 48.8996H75.2409Z" fill="white"/>
<path d="M85.5234 48.8996H80.3744V41.0893H85.4894V42.0265H81.1392V44.0014H85.1411V44.9386H81.1392V47.9623H85.5234V48.8996Z" fill="white"/>
<path d="M6.7028 42.5613C6.07456 43.4226 5.44632 44.3447 5.30446 44.6081C4.58503 45.9761 5.18287 47.7088 6.65213 48.4789C7.36143 48.8437 8.5571 48.8639 9.25627 48.5194C10.2898 48.0128 10.9789 46.9691 10.9991 45.8849C11.0194 45.1148 10.6951 44.4663 9.51972 42.8856C9.01308 42.2067 8.49631 41.5075 8.36458 41.3251C8.23285 41.1528 8.0606 41.0009 7.98967 41.0009C7.91874 41.0009 7.34116 41.7 6.7028 42.5613Z" fill="#BDA57E"/>
</svg>
